<?xml version="1.0" encoding="UTF-8" standalone="no"?>
<svg
   xmlns:dc="http://purl.org/dc/elements/1.1/"
   xmlns:cc="http://creativecommons.org/ns#"
   xmlns:rdf="http://www.w3.org/1999/02/22-rdf-syntax-ns#"
   xmlns:svg="http://www.w3.org/2000/svg"
   xmlns="http://www.w3.org/2000/svg"
   xmlns:sodipodi="http://sodipodi.sourceforge.net/DTD/sodipodi-0.dtd"
   xmlns:inkscape="http://www.inkscape.org/namespaces/inkscape"
   version="1.1"
   id="Layer_1"
   x="0px"
   y="0px"
   viewBox="0 0 183 174"
   style="enable-background:new 0 0 183 174;"
   xml:space="preserve"
   class="logo"
   inkscape:version="0.91 r13725"
   sodipodi:docname="l-logo.svg"
   fill="currentColor"><metadata
     id="metadata11"><rdf:RDF><cc:Work
         rdf:about=""><dc:format>image/svg+xml</dc:format><dc:type
           rdf:resource="http://purl.org/dc/dcmitype/StillImage" /></cc:Work></rdf:RDF></metadata><defs
     id="defs9" /><sodipodi:namedview
     pagecolor="#ffffff"
     bordercolor="#666666"
     borderopacity="1"
     objecttolerance="10"
     gridtolerance="10"
     guidetolerance="10"
     inkscape:pageopacity="0"
     inkscape:pageshadow="2"
     inkscape:window-width="1920"
     inkscape:window-height="1017"
     id="namedview7"
     showgrid="false"
     inkscape:zoom="1.3563218"
     inkscape:cx="91.5"
     inkscape:cy="87"
     inkscape:window-x="0"
     inkscape:window-y="30"
     inkscape:window-maximized="1"
     inkscape:current-layer="g3" /><g
     id="g3"><path
       class="st0"
       d="M183-4H0c0,0,0,0,0,0v173.2c0,2.6,2.1,4.8,4.8,4.8h173.5c2.6,0,4.7-2.1,4.7-4.7L183-4C183-4,183-4,183-4z M87.9,129.1C87.9,129.2,87.9,129.2,87.9,129.1c0,1-0.8,1.8-1.8,1.8H48.2h0c0,0,0,0,0,0c-2.5,0-4.5-2-4.5-4.5V44.9c0,0,0-0.1,0-0.1 c0-1,0.8-1.7,1.8-1.7h6.8c0,0,0.1,0,0.1,0c1,0,1.7,0.8,1.7,1.8v76.3h32c0,0,0.1,0,0.1,0c1,0,1.7,0.8,1.7,1.8V129.1z M141,128.3  c0,0,0,0.1,0,0.1c0,1.4-1.2,2.6-2.7,2.5h-7.6c-0.7,0-1.3-0.1-1.9-0.4c-0.6-0.3-1.1-0.8-1.4-1.3L87.5,59.5v48.8c0,0,0,0.1,0,0.1 c0,1-0.8,1.7-1.8,1.7h-6.3c0,0-0.1,0-0.1,0c-1,0-1.7-0.8-1.7-1.8V45.7c0,0,0-0.1,0-0.1c0-1.4,1.2-2.6,2.7-2.5h7.5 c0.7,0,1.3,0.1,1.9,0.4c0.6,0.3,1.1,0.8,1.4,1.3l40,69.7V44.9c0,0,0-0.1,0-0.1c0-1,0.8-1.7,1.8-1.7h6.3c0,0,0.1,0,0.1,0 c1,0,1.7,0.8,1.7,1.8V128.3z"
       id="path5" /></g></svg>