<?xml version="1.0" encoding="UTF-8" standalone="no"?>
<svg
   xmlns:dc="http://purl.org/dc/elements/1.1/"
   xmlns:cc="http://creativecommons.org/ns#"
   xmlns:rdf="http://www.w3.org/1999/02/22-rdf-syntax-ns#"
   xmlns:svg="http://www.w3.org/2000/svg"
   xmlns="http://www.w3.org/2000/svg"
   xmlns:sodipodi="http://sodipodi.sourceforge.net/DTD/sodipodi-0.dtd"
   xmlns:inkscape="http://www.inkscape.org/namespaces/inkscape"
   version="1.1"
   id="Layer_1"
   x="0px"
   y="0px"
   viewBox="0 0 183 174"
   style="enable-background:new 0 0 183 174;"
   xml:space="preserve"
   class="logo"
   inkscape:version="0.91 r13725"
   sodipodi:docname="l2-logo.svg"
   fill="currentColor"
   inkscape:export-filename="/var/www/etk21/public/vector/l4.png"
   inkscape:export-xdpi="90"
   inkscape:export-ydpi="90"><metadata
     id="metadata11"><rdf:RDF><cc:Work
         rdf:about=""><dc:format>image/svg+xml</dc:format><dc:type
           rdf:resource="http://purl.org/dc/dcmitype/StillImage" /><dc:title></dc:title></cc:Work></rdf:RDF></metadata><defs
     id="defs9" /><sodipodi:namedview
     pagecolor="#ffffff"
     bordercolor="#666666"
     borderopacity="1"
     objecttolerance="10"
     gridtolerance="10"
     guidetolerance="10"
     inkscape:pageopacity="0"
     inkscape:pageshadow="2"
     inkscape:window-width="1920"
     inkscape:window-height="1017"
     id="namedview7"
     showgrid="false"
     inkscape:zoom="1.3563218"
     inkscape:cx="-237.69915"
     inkscape:cy="86.999997"
     inkscape:window-x="0"
     inkscape:window-y="30"
     inkscape:window-maximized="1"
     inkscape:current-layer="Layer_1" /><g
     id="g3"
     transform="matrix(0.36122507,0,0,0.36122507,52.464809,69.136539)"><path
       inkscape:connector-curvature="0"
       style="fill:#3e307d;stroke:none"
       d="m 251.02948,-7.4323354 66.61418,0 c 1.02755,0 1.84252,0.814961 1.84252,1.84252 l 0,34.9370074 c 0,0.992126 -0.81497,1.842519 -1.84252,1.842519 l -17.39764,0 -21.47244,19.098425 28.24015,52.759844 18.1063,0 c 1.02756,0 1.87796,0.8504 1.87796,1.84252 l 0,34.93701 c 0,1.02756 -0.8504,1.87795 -1.87796,1.87795 l -81.60236,0 c -1.02756,0 -1.87795,-0.85039 -1.87795,-1.87795 l 0,-34.93701 c 0,-0.99212 0.85039,-1.84252 1.87795,-1.84252 l 4.46457,0 -13.0748,-15.625984 -8.07874,8.18504 0,7.440944 3.04724,0 c 0.99213,0 1.84252,0.8504 1.84252,1.84252 l 0,34.93701 c 0,1.02756 -0.85039,1.87795 -1.84252,1.87795 l -58.6063,0 c -1.02756,0 -1.84252,-0.85039 -1.84252,-1.87795 l 0,-34.93701 c 0,-0.99212 0.81496,-1.84252 1.84252,-1.84252 l 18.81496,0 0,-71.858269 -18.81496,0 c -1.02756,0 -1.84252,-0.850393 -1.84252,-1.842519 l 0,-34.9370074 c 0,-1.027559 0.81496,-1.84252 1.84252,-1.84252 l 67.03937,0 c 1.02756,0 1.84252,0.814961 1.84252,1.84252 l 0,34.9370074 c 0,0.992126 -0.81496,1.842519 -1.84252,1.842519 l -11.48031,0 0,35.043305 42.16535,-35.043305 -17.96457,0 c -1.02755,0 -1.87795,-0.850393 -1.87795,-1.842519 l 0,-34.9370074 c 0,-1.027559 0.8504,-1.84252 1.87795,-1.84252 z"
       id="path65" /><path
       inkscape:connector-curvature="0"
       style="fill:#3e307d;stroke:none"
       d="m 8.2420947,-6.3339104 28.1338603,0 0.81496,0 c 0.99212,0 1.84252,0.814961 1.84252,1.84252 l 0,60.5196864 c 0,0.99212 -0.8504,1.84252 -1.84252,1.84252 l -28.9488203,0 c -1.02756,0 -1.87795,-0.8504 -1.87795,-1.84252 l 0,-25.086616 -45.4606327,0 0,17.681106 26.468503,0 c 1.027559,0 1.877953,0.81496 1.877953,1.84252 l 0,33.59055 c 0,1.02755 -0.850394,1.87795 -1.877953,1.87795 l -26.468503,0 0,18.496064 45.4606327,0 0,-25.086614 c 0,-1.02756 0.85039,-1.84252 1.87795,-1.84252 l 28.9488203,0 c 0.99212,0 1.84252,0.81496 1.84252,1.84252 l 0,60.519684 c 0,0.99213 -0.8504,1.84252 -1.84252,1.84252 l -0.81496,0 -28.1338603,0 -107.7874007,0 c -1.027554,0 -1.842524,-0.85039 -1.842524,-1.84252 l 0,-33.59055 c 0,-1.02756 0.81497,-1.84252 1.842524,-1.84252 l 17.468504,0 0,-20.303154 0,-0.0709 0,-33.59055 0,-0.0354 0,-19.488186 -17.468504,0 c -1.027554,0 -1.842524,-0.850394 -1.842524,-1.877953 l 0,-33.5551174 c 0,-1.027559 0.81497,-1.84252 1.842524,-1.84252 l 17.468504,0 42.980314,0 47.3385827,0 z"
       id="path56" /><path
       inkscape:connector-curvature="0"
       style="fill:#3e307d;stroke:none"
       d="m -99.545306,-59.129184 419.137776,0 c 1.02756,0 1.87796,0.81496 1.87796,1.842519 l 0,32.208661 c 0,1.027559 -0.8504,1.84252 -1.87796,1.84252 l -191.5866,0 0,129.011814 21.82677,0 c 0.99212,0 1.84252,0.85039 1.84252,1.84252 l 0,32.20866 c 0,1.02756 -0.8504,1.87795 -1.84252,1.87795 l -21.82677,0 -35.964565,0 -21.82677,0 c -0.99213,0 -1.84252,-0.85039 -1.84252,-1.87795 l 0,-32.20866 c 0,-0.99213 0.85039,-1.84252 1.84252,-1.84252 l 21.82677,0 0,-129.011814 -191.586611,0 c -1.027554,0 -1.842524,-0.814961 -1.842524,-1.84252 l 0,-32.208661 c 0,-1.027559 0.81497,-1.842519 1.842524,-1.842519 z"
       id="path74" /></g></svg>