<?xml version="1.0" encoding="UTF-8" standalone="no"?>
<!-- Created with Inkscape (http://www.inkscape.org/) -->

<svg
   xmlns:dc="http://purl.org/dc/elements/1.1/"
   xmlns:cc="http://creativecommons.org/ns#"
   xmlns:rdf="http://www.w3.org/1999/02/22-rdf-syntax-ns#"
   xmlns:svg="http://www.w3.org/2000/svg"
   xmlns="http://www.w3.org/2000/svg"
   xmlns:sodipodi="http://sodipodi.sourceforge.net/DTD/sodipodi-0.dtd"
   xmlns:inkscape="http://www.inkscape.org/namespaces/inkscape"
   viewBox="0 0 744.09449 1052.3622"
   id="svg3345"
   version="1.1"
   inkscape:version="0.91 r13725"
   fill="currentColor"
   sodipodi:docname="l4.svg">
  <defs
     id="defs3347" />
  <g
     inkscape:label="Layer 1"
     inkscape:groupmode="layer"
     id="layer1">
    <path
       inkscape:connector-curvature="0"
       style="fill:#3e307d;stroke:none"
       d="m 129.66402,396.57168 66.58699,0 1.92884,0 c 2.34814,0 4.36086,1.92884 4.36086,4.36086 l 0,143.23752 c 0,2.34814 -2.01272,4.36086 -4.36086,4.36086 l -68.51583,0 c -2.43203,0 -4.44472,-2.01272 -4.44472,-4.36086 l 0,-59.37481 -107.595851,0 0,41.8475 62.64543,0 c 2.43202,0 4.44472,1.92885 4.44472,4.36087 l 0,79.50184 c 0,2.43199 -2.0127,4.44471 -4.44472,4.44471 l -62.64543,0 0,43.77633 107.595851,0 0,-59.37479 c 0,-2.43202 2.01269,-4.36086 4.44472,-4.36086 l 68.51583,0 c 2.34814,0 4.36086,1.92884 4.36086,4.36086 l 0,143.23749 c 0,2.34817 -2.01272,4.36086 -4.36086,4.36086 l -1.92884,0 -66.58699,0 -255.11035,0 c -2.43202,0 -4.36086,-2.01269 -4.36086,-4.36086 l 0,-79.50184 c 0,-2.43202 1.92884,-4.36086 4.36086,-4.36086 l 41.344309,0 0,-48.05333 0,-0.16781 0,-79.50184 0,-0.0838 0,-46.12449 -41.344309,0 c -2.43202,0 -4.36086,-2.0127 -4.36086,-4.44472 l 0,-79.41799 c 0,-2.43202 1.92884,-4.36086 4.36086,-4.36086 l 41.344309,0 101.72547,0 112.040571,0 z"
       id="path56" />
    <path
       inkscape:connector-curvature="0"
       style="fill:#3e307d;stroke:none"
       d="m 704.29124,393.97195 157.66193,0 c 2.432,0 4.3608,1.92884 4.3608,4.36086 l 0,82.68861 c 0,2.34817 -1.9288,4.36086 -4.3608,4.36086 l -41.1766,0 -50.8208,45.20201 66.8385,124.87156 42.8539,0 c 2.432,0 4.4447,2.01272 4.4447,4.36086 l 0,82.68864 c 0,2.43202 -2.0127,4.44471 -4.4447,4.44471 l -193.13582,0 c -2.43202,0 -4.44472,-2.01269 -4.44472,-4.44471 l 0,-82.68864 c 0,-2.34814 2.0127,-4.36086 4.44472,-4.36086 l 10.56671,0 -30.94533,-36.98344 -19.1207,19.37229 0,17.61115 7.21218,0 c 2.34817,0 4.36086,2.01272 4.36086,4.36086 l 0,82.68864 c 0,2.43202 -2.01269,4.44471 -4.36086,4.44471 l -138.70891,0 c -2.43202,0 -4.36086,-2.01269 -4.36086,-4.44471 l 0,-82.68864 c 0,-2.34814 1.92884,-4.36086 4.36086,-4.36086 l 44.53109,0 0,-170.07357 -44.53109,0 c -2.43202,0 -4.36086,-2.01269 -4.36086,-4.36086 l 0,-82.68861 c 0,-2.43202 1.92884,-4.36086 4.36086,-4.36086 l 158.66823,0 c 2.43203,0 4.36087,1.92884 4.36087,4.36086 l 0,82.68861 c 0,2.34817 -1.92884,4.36086 -4.36087,4.36086 l -27.1715,0 0,82.94022 99.79664,-82.94022 -42.51843,0 c -2.432,0 -4.44472,-2.01269 -4.44472,-4.36086 l 0,-82.68861 c 0,-2.43202 2.01272,-4.36086 4.44472,-4.36086 z"
       id="path65" />
    <path
       inkscape:connector-curvature="0"
       style="fill:#3e307d;stroke:none"
       d="m -125.44633,271.61626 992.0119,0 c 2.432,0 4.4447,1.92885 4.4447,4.36087 l 0,76.23119 c 0,2.43202 -2.0127,4.36086 -4.4447,4.36086 l -453.44561,0 0,305.34411 51.65942,0 c 2.34814,0 4.36086,2.0127 4.36086,4.36086 l 0,76.2312 c 0,2.43202 -2.01272,4.44471 -4.36086,4.44471 l -51.65942,0 -85.12065,0 -51.65943,0 c -2.34816,0 -4.36086,-2.01269 -4.36086,-4.44471 l 0,-76.2312 c 0,-2.34816 2.0127,-4.36086 4.36086,-4.36086 l 51.65943,0 0,-305.34411 -453.44564,0 c -2.43202,0 -4.36086,-1.92884 -4.36086,-4.36086 l 0,-76.23119 c 0,-2.43202 1.92884,-4.36087 4.36086,-4.36087 z"
       id="path74" />
  </g>
</svg>
