<svg version="1.1" id="Layer_1" xmlns="http://www.w3.org/2000/svg" xmlns:xlink="http://www.w3.org/1999/xlink" x="0px" y="0px" viewBox="0 0 183 174" style="enable-background:new 0 0 183 174;" xml:space="preserve" fill="currentColor" class="logo">
<g>
<path class="st0" d="M183-4H0c0,0,0,0,0,0v173.2c0,2.6,2.1,4.8,4.8,4.8h173.5c2.6,0,4.7-2.1,4.7-4.7L183-4C183-4,183-4,183-4z M87.9,129.1C87.9,129.2,87.9,129.2,87.9,129.1c0,1-0.8,1.8-1.8,1.8H48.2h0c0,0,0,0,0,0c-2.5,0-4.5-2-4.5-4.5V44.9c0,0,0-0.1,0-0.1 c0-1,0.8-1.7,1.8-1.7h6.8c0,0,0.1,0,0.1,0c1,0,1.7,0.8,1.7,1.8v76.3h32c0,0,0.1,0,0.1,0c1,0,1.7,0.8,1.7,1.8V129.1z M141,128.3  c0,0,0,0.1,0,0.1c0,1.4-1.2,2.6-2.7,2.5h-7.6c-0.7,0-1.3-0.1-1.9-0.4c-0.6-0.3-1.1-0.8-1.4-1.3L87.5,59.5v48.8c0,0,0,0.1,0,0.1 c0,1-0.8,1.7-1.8,1.7h-6.3c0,0-0.1,0-0.1,0c-1,0-1.7-0.8-1.7-1.8V45.7c0,0,0-0.1,0-0.1c0-1.4,1.2-2.6,2.7-2.5h7.5 c0.7,0,1.3,0.1,1.9,0.4c0.6,0.3,1.1,0.8,1.4,1.3l40,69.7V44.9c0,0,0-0.1,0-0.1c0-1,0.8-1.7,1.8-1.7h6.3c0,0,0.1,0,0.1,0 c1,0,1.7,0.8,1.7,1.8V128.3z"></path>
<path
       
       d="m 251.02948,-7.4323354 66.61418,0 c 1.02755,0 1.84252,0.814961 1.84252,1.84252 l 0,34.9370074 c 0,0.992126 -0.81497,1.842519 -1.84252,1.842519 l -17.39764,0 -21.47244,19.098425 28.24015,52.759844 18.1063,0 c 1.02756,0 1.87796,0.8504 1.87796,1.84252 l 0,34.93701 c 0,1.02756 -0.8504,1.87795 -1.87796,1.87795 l -81.60236,0 c -1.02756,0 -1.87795,-0.85039 -1.87795,-1.87795 l 0,-34.93701 c 0,-0.99212 0.85039,-1.84252 1.87795,-1.84252 l 4.46457,0 -13.0748,-15.625984 -8.07874,8.18504 0,7.440944 3.04724,0 c 0.99213,0 1.84252,0.8504 1.84252,1.84252 l 0,34.93701 c 0,1.02756 -0.85039,1.87795 -1.84252,1.87795 l -58.6063,0 c -1.02756,0 -1.84252,-0.85039 -1.84252,-1.87795 l 0,-34.93701 c 0,-0.99212 0.81496,-1.84252 1.84252,-1.84252 l 18.81496,0 0,-71.858269 -18.81496,0 c -1.02756,0 -1.84252,-0.850393 -1.84252,-1.842519 l 0,-34.9370074 c 0,-1.027559 0.81496,-1.84252 1.84252,-1.84252 l 67.03937,0 c 1.02756,0 1.84252,0.814961 1.84252,1.84252 l 0,34.9370074 c 0,0.992126 -0.81496,1.842519 -1.84252,1.842519 l -11.48031,0 0,35.043305 42.16535,-35.043305 -17.96457,0 c -1.02755,0 -1.87795,-0.850393 -1.87795,-1.842519 l 0,-34.9370074 c 0,-1.027559 0.8504,-1.84252 1.87795,-1.84252 z"
       ></path>
<path
       style="fill:#3e307d;stroke:none"
       d="m 8.2420947,-6.3339104 28.1338603,0 0.81496,0 c 0.99212,0 1.84252,0.814961 1.84252,1.84252 l 0,60.5196864 c 0,0.99212 -0.8504,1.84252 -1.84252,1.84252 l -28.9488203,0 c -1.02756,0 -1.87795,-0.8504 -1.87795,-1.84252 l 0,-25.086616 -45.4606327,0 0,17.681106 26.468503,0 c 1.027559,0 1.877953,0.81496 1.877953,1.84252 l 0,33.59055 c 0,1.02755 -0.850394,1.87795 -1.877953,1.87795 l -26.468503,0 0,18.496064 45.4606327,0 0,-25.086614 c 0,-1.02756 0.85039,-1.84252 1.87795,-1.84252 l 28.9488203,0 c 0.99212,0 1.84252,0.81496 1.84252,1.84252 l 0,60.519684 c 0,0.99213 -0.8504,1.84252 -1.84252,1.84252 l -0.81496,0 -28.1338603,0 -107.7874007,0 c -1.027554,0 -1.842524,-0.85039 -1.842524,-1.84252 l 0,-33.59055 c 0,-1.02756 0.81497,-1.84252 1.842524,-1.84252 l 17.468504,0 0,-20.303154 0,-0.0709 0,-33.59055 0,-0.0354 0,-19.488186 -17.468504,0 c -1.027554,0 -1.842524,-0.850394 -1.842524,-1.877953 l 0,-33.5551174 c 0,-1.027559 0.81497,-1.84252 1.842524,-1.84252 l 17.468504,0 42.980314,0 47.3385827,0 z"
       ></path>
<path
       inkscape:connector-curvature="0"
       style="fill:#3e307d;stroke:none"
       d="m -99.545306,-59.129184 419.137776,0 c 1.02756,0 1.87796,0.81496 1.87796,1.842519 l 0,32.208661 c 0,1.027559 -0.8504,1.84252 -1.87796,1.84252 l -191.5866,0 0,129.011814 21.82677,0 c 0.99212,0 1.84252,0.85039 1.84252,1.84252 l 0,32.20866 c 0,1.02756 -0.8504,1.87795 -1.84252,1.87795 l -21.82677,0 -35.964565,0 -21.82677,0 c -0.99213,0 -1.84252,-0.85039 -1.84252,-1.87795 l 0,-32.20866 c 0,-0.99213 0.85039,-1.84252 1.84252,-1.84252 l 21.82677,0 0,-129.011814 -191.586611,0 c -1.027554,0 -1.842524,-0.814961 -1.842524,-1.84252 l 0,-32.208661 c 0,-1.027559 0.81497,-1.842519 1.842524,-1.842519 z"
       ></path>
</g>
</svg>