<?xml version="1.0" encoding="UTF-8"?>
<!DOCTYPE svg PUBLIC "-//W3C//DTD SVG 1.1//EN" "http://www.w3.org/Graphics/SVG/1.1/DTD/svg11.dtd">
<svg version="1.2" width="121.77mm" height="57.55mm" viewBox="8598 17434 12177 5755" preserveAspectRatio="xMidYMid" fill-rule="evenodd" stroke-width="28.222" stroke-linejoin="round" xmlns="http://www.w3.org/2000/svg" xmlns:ooo="http://xml.openoffice.org/svg/export" xmlns:xlink="http://www.w3.org/1999/xlink" xmlns:presentation="http://sun.com/xmlns/staroffice/presentation" xmlns:smil="http://www.w3.org/2001/SMIL20/" xmlns:anim="urn:oasis:names:tc:opendocument:xmlns:animation:1.0" xml:space="preserve">
 <defs class="ClipPathGroup">
  <clipPath id="presentation_clip_path" clipPathUnits="userSpaceOnUse">
   <rect x="8598" y="17434" width="12177" height="5755"/>
  </clipPath>
 </defs>
 <defs class="TextShapeIndex">
  <g ooo:slide="id1" ooo:id-list="id3 id4 id5"/>
 </defs>
 <defs class="EmbeddedBulletChars">
  <g id="bullet-char-template(57356)" transform="scale(0.00048828125,-0.00048828125)">
   <path d="M 580,1141 L 1163,571 580,0 -4,571 580,1141 Z"/>
  </g>
  <g id="bullet-char-template(57354)" transform="scale(0.00048828125,-0.00048828125)">
   <path d="M 8,1128 L 1137,1128 1137,0 8,0 8,1128 Z"/>
  </g>
  <g id="bullet-char-template(10146)" transform="scale(0.00048828125,-0.00048828125)">
   <path d="M 174,0 L 602,739 174,1481 1456,739 174,0 Z M 1358,739 L 309,1346 659,739 1358,739 Z"/>
  </g>
  <g id="bullet-char-template(10132)" transform="scale(0.00048828125,-0.00048828125)">
   <path d="M 2015,739 L 1276,0 717,0 1260,543 174,543 174,936 1260,936 717,1481 1274,1481 2015,739 Z"/>
  </g>
  <g id="bullet-char-template(10007)" transform="scale(0.00048828125,-0.00048828125)">
   <path d="M 0,-2 C -7,14 -16,27 -25,37 L 356,567 C 262,823 215,952 215,954 215,979 228,992 255,992 264,992 276,990 289,987 310,991 331,999 354,1012 L 381,999 492,748 772,1049 836,1024 860,1049 C 881,1039 901,1025 922,1006 886,937 835,863 770,784 769,783 710,716 594,584 L 774,223 C 774,196 753,168 711,139 L 727,119 C 717,90 699,76 672,76 641,76 570,178 457,381 L 164,-76 C 142,-110 111,-127 72,-127 30,-127 9,-110 8,-76 1,-67 -2,-52 -2,-32 -2,-23 -1,-13 0,-2 Z"/>
  </g>
  <g id="bullet-char-template(10004)" transform="scale(0.00048828125,-0.00048828125)">
   <path d="M 285,-33 C 182,-33 111,30 74,156 52,228 41,333 41,471 41,549 55,616 82,672 116,743 169,778 240,778 293,778 328,747 346,684 L 369,508 C 377,444 397,411 428,410 L 1163,1116 C 1174,1127 1196,1133 1229,1133 1271,1133 1292,1118 1292,1087 L 1292,965 C 1292,929 1282,901 1262,881 L 442,47 C 390,-6 338,-33 285,-33 Z"/>
  </g>
  <g id="bullet-char-template(9679)" transform="scale(0.00048828125,-0.00048828125)">
   <path d="M 813,0 C 632,0 489,54 383,161 276,268 223,411 223,592 223,773 276,916 383,1023 489,1130 632,1184 813,1184 992,1184 1136,1130 1245,1023 1353,916 1407,772 1407,592 1407,412 1353,268 1245,161 1136,54 992,0 813,0 Z"/>
  </g>
  <g id="bullet-char-template(8226)" transform="scale(0.00048828125,-0.00048828125)">
   <path d="M 346,457 C 273,457 209,483 155,535 101,586 74,649 74,723 74,796 101,859 155,911 209,963 273,989 346,989 419,989 480,963 531,910 582,859 608,796 608,723 608,648 583,586 532,535 482,483 420,457 346,457 Z"/>
  </g>
  <g id="bullet-char-template(8211)" transform="scale(0.00048828125,-0.00048828125)">
   <path d="M -4,459 L 1135,459 1135,606 -4,606 -4,459 Z"/>
  </g>
 </defs>
 <defs class="TextEmbeddedBitmaps"/>
 <g class="SlideGroup">
  <g>
   <g id="id1" class="Slide" clip-path="url(#presentation_clip_path)">
    <g class="Page">
     <g class="com.sun.star.drawing.ClosedBezierShape">
      <g id="id3">
       <rect class="BoundingBox" stroke="none" fill="none" x="8597" y="18923" width="4052" height="4267"/>
       <path fill="rgb(62,48,125)" stroke="none" d="M 11735,18967 L 12529,18967 12552,18967 C 12580,18967 12604,18990 12604,19019 L 12604,20727 C 12604,20755 12580,20779 12552,20779 L 11735,20779 C 11706,20779 11682,20755 11682,20727 L 11682,20019 10399,20019 10399,20518 11146,20518 C 11175,20518 11199,20541 11199,20570 L 11199,21518 C 11199,21547 11175,21571 11146,21571 L 10399,21571 10399,22093 11682,22093 11682,21385 C 11682,21356 11706,21333 11735,21333 L 12552,21333 C 12580,21333 12604,21356 12604,21385 L 12604,23093 C 12604,23121 12580,23145 12552,23145 L 12529,23145 11735,23145 8693,23145 C 8664,23145 8641,23121 8641,23093 L 8641,22145 C 8641,22116 8664,22093 8693,22093 L 9186,22093 9186,21520 9186,21518 9186,20570 9186,20569 9186,20019 8693,20019 C 8664,20019 8641,19995 8641,19966 L 8641,19019 C 8641,18990 8664,18967 8693,18967 L 9186,18967 10399,18967 11735,18967 Z"/>
       <path fill="none" stroke="rgb(255,255,255)" stroke-width="87" stroke-linejoin="miter" d="M 11735,18967 L 12529,18967 12552,18967 C 12580,18967 12604,18990 12604,19019 L 12604,20727 C 12604,20755 12580,20779 12552,20779 L 11735,20779 C 11706,20779 11682,20755 11682,20727 L 11682,20019 10399,20019 10399,20518 11146,20518 C 11175,20518 11199,20541 11199,20570 L 11199,21518 C 11199,21547 11175,21571 11146,21571 L 10399,21571 10399,22093 11682,22093 11682,21385 C 11682,21356 11706,21333 11735,21333 L 12552,21333 C 12580,21333 12604,21356 12604,21385 L 12604,23093 C 12604,23121 12580,23145 12552,23145 L 12529,23145 11735,23145 8693,23145 C 8664,23145 8641,23121 8641,23093 L 8641,22145 C 8641,22116 8664,22093 8693,22093 L 9186,22093 9186,21520 9186,21518 9186,20570 9186,20569 9186,20019 8693,20019 C 8664,20019 8641,19995 8641,19966 L 8641,19019 C 8641,18990 8664,18967 8693,18967 L 9186,18967 10399,18967 11735,18967 Z"/>
      </g>
     </g>
     <g class="com.sun.star.drawing.ClosedBezierShape">
      <g id="id4">
       <rect class="BoundingBox" stroke="none" fill="none" x="16240" y="18892" width="4536" height="4298"/>
       <path fill="rgb(62,48,125)" stroke="none" d="M 18587,18936 L 20467,18936 C 20496,18936 20519,18959 20519,18988 L 20519,19974 C 20519,20002 20496,20026 20467,20026 L 19976,20026 19370,20565 20167,22054 20678,22054 C 20707,22054 20731,22078 20731,22106 L 20731,23092 C 20731,23121 20707,23145 20678,23145 L 18375,23145 C 18346,23145 18322,23121 18322,23092 L 18322,22106 C 18322,22078 18346,22054 18375,22054 L 18501,22054 18132,21613 17904,21844 17904,22054 17990,22054 C 18018,22054 18042,22078 18042,22106 L 18042,23092 C 18042,23121 18018,23145 17990,23145 L 16336,23145 C 16307,23145 16284,23121 16284,23092 L 16284,22106 C 16284,22078 16307,22054 16336,22054 L 16867,22054 16867,20026 16336,20026 C 16307,20026 16284,20002 16284,19974 L 16284,18988 C 16284,18959 16307,18936 16336,18936 L 18228,18936 C 18257,18936 18280,18959 18280,18988 L 18280,19974 C 18280,20002 18257,20026 18228,20026 L 17904,20026 17904,21015 19094,20026 18587,20026 C 18558,20026 18534,20002 18534,19974 L 18534,18988 C 18534,18959 18558,18936 18587,18936 Z"/>
       <path fill="none" stroke="rgb(255,255,255)" stroke-width="87" stroke-linejoin="miter" d="M 18587,18936 L 20467,18936 C 20496,18936 20519,18959 20519,18988 L 20519,19974 C 20519,20002 20496,20026 20467,20026 L 19976,20026 19370,20565 20167,22054 20678,22054 C 20707,22054 20731,22078 20731,22106 L 20731,23092 C 20731,23121 20707,23145 20678,23145 L 18375,23145 C 18346,23145 18322,23121 18322,23092 L 18322,22106 C 18322,22078 18346,22054 18375,22054 L 18501,22054 18132,21613 17904,21844 17904,22054 17990,22054 C 18018,22054 18042,22078 18042,22106 L 18042,23092 C 18042,23121 18018,23145 17990,23145 L 16336,23145 C 16307,23145 16284,23121 16284,23092 L 16284,22106 C 16284,22078 16307,22054 16336,22054 L 16867,22054 16867,20026 16336,20026 C 16307,20026 16284,20002 16284,19974 L 16284,18988 C 16284,18959 16307,18936 16336,18936 L 18228,18936 C 18257,18936 18280,18959 18280,18988 L 18280,19974 C 18280,20002 18257,20026 18228,20026 L 17904,20026 17904,21015 19094,20026 18587,20026 C 18558,20026 18534,20002 18534,19974 L 18534,18988 C 18534,18959 18558,18936 18587,18936 Z"/>
      </g>
     </g>
     <g class="com.sun.star.drawing.ClosedBezierShape">
      <g id="id5">
       <rect class="BoundingBox" stroke="none" fill="none" x="8597" y="17433" width="12023" height="5757"/>
       <path fill="rgb(62,48,125)" stroke="none" d="M 8693,17477 L 20522,17477 C 20551,17477 20575,17500 20575,17529 L 20575,18438 C 20575,18467 20551,18490 20522,18490 L 15115,18490 15115,22131 15731,22131 C 15759,22131 15783,22155 15783,22183 L 15783,23092 C 15783,23121 15759,23145 15731,23145 L 15115,23145 14100,23145 13484,23145 C 13456,23145 13432,23121 13432,23092 L 13432,22183 C 13432,22155 13456,22131 13484,22131 L 14100,22131 14100,18490 8693,18490 C 8664,18490 8641,18467 8641,18438 L 8641,17529 C 8641,17500 8664,17477 8693,17477 Z"/>
       <path fill="none" stroke="rgb(255,255,255)" stroke-width="87" stroke-linejoin="miter" d="M 8693,17477 L 20522,17477 C 20551,17477 20575,17500 20575,17529 L 20575,18438 C 20575,18467 20551,18490 20522,18490 L 15115,18490 15115,22131 15731,22131 C 15759,22131 15783,22155 15783,22183 L 15783,23092 C 15783,23121 15759,23145 15731,23145 L 15115,23145 14100,23145 13484,23145 C 13456,23145 13432,23121 13432,23092 L 13432,22183 C 13432,22155 13456,22131 13484,22131 L 14100,22131 14100,18490 8693,18490 C 8664,18490 8641,18467 8641,18438 L 8641,17529 C 8641,17500 8664,17477 8693,17477 Z"/>
      </g>
     </g>
    </g>
   </g>
  </g>
 </g>
</svg>